# xmcd
#
# Track frame offsets:
#	150
#	20137
#	41187
#	63737
#	76950
#	96450
#	119025
#	153812
#	164900
#	185675
#	196237
#	208437
#	243025
#	253487
#	272387
#	284925
#	308712
#
# Disc length: 4341
#
# Revision: 3
# Processed by: cddbd v1.5.1PL0 Copyright (c) Steve Scherf et al.
# Submitted via: CDex 1.50Beta5
# Normalized: r1:DSETVAR1,TDELIM( - ),TSWAP
#
DISCID=1210f311
DTITLE=Various Artist - @Jazz Cafe
DYEAR=1900
DGENRE=Jazz -> General Jazz
TTITLE0=Lalo Schifrin - Old Race
TTITLE1=Kenny Burrell - Last Night When We Were Young
TTITLE2=Dexter Gordon - The Shadow Of Your Smile
TTITLE3=The Singers Unlimited and Oscar Peterson - Sesame Street
TTITLE4=Quincy Jones - For Lena And Lennie
TTITLE5=Wes Montgomery - What The World Needs Now Is Love
TTITLE6=Art Farmer - The Summer Knows
TTITLE7=Walter Wanderley - Call Me
TTITLE8=Acoustic Alchemy - Catalina Kiss
TTITLE9=Astrud Gilberto - Agua De Beber
TTITLE10=Stan Getz - The Look Of Love
TTITLE11=Dave Grusin - Modaji
TTITLE12=Antonio Carlos Jobim - One Note Samba
TTITLE13=Oliver Nelson - Miss Fine
TTITLE14=Count Basie - Michelle
TTITLE15=John Coltrane - You Don't Know What Love Is
TTITLE16=Bill Evans - Danny Boy
EXTD=
EXTT0=
EXTT1=
EXTT2=
EXTT3=
EXTT4=
EXTT5=
EXTT6=
EXTT7=
EXTT8=
EXTT9=
EXTT10=
EXTT11=
EXTT12=
EXTT13=
EXTT14=
EXTT15=
EXTT16=
PLAYORDER=
